<svg width="114" height="55" viewBox="0 0 114 55" fill="none" xmlns="http://www.w3.org/2000/svg">
<path fill-rule="evenodd" clip-rule="evenodd" d="M43 5.76471C43 2.71953 45.3611 0.225834 48.3525 0.0145077V16.8685C48.3525 16.8731 48.3525 16.8777 48.3525 16.8824L48.3525 21C48.3525 21.9096 49.0899 22.6471 49.9995 22.6471H54.1172V17.2941H54.1172V11.5294L71 11.5294V28H48.7647C45.5809 28 43 25.4191 43 22.2353V5.76471ZM71 5.76471C71 2.58095 68.4191 0 65.2353 0H54.1172V5.7647L71 5.76471ZM65.2353 16.8824V22.6471H54.1176V16.8824H65.2353Z" fill="#BC8C5F"/>
<path d="M1.6321 40.6136V39.3636H10.3594V40.6136H6.70028V51H5.29119V40.6136H1.6321ZM11.652 51H10.1747L14.4474 39.3636H15.902L20.1747 51H18.6974L15.2202 41.2045H15.1293L11.652 51ZM12.1974 46.4545H18.152V47.7045H12.1974V46.4545ZM28.3509 42.2727C28.2827 41.697 28.0062 41.25 27.5213 40.9318C27.0365 40.6136 26.4418 40.4545 25.7372 40.4545C25.2221 40.4545 24.7713 40.5379 24.3849 40.7045C24.0024 40.8712 23.7031 41.1004 23.4872 41.392C23.2751 41.6837 23.169 42.0152 23.169 42.3864C23.169 42.697 23.2429 42.964 23.3906 43.1875C23.5421 43.4072 23.7353 43.5909 23.9702 43.7386C24.205 43.8826 24.4512 44.0019 24.7088 44.0966C24.9664 44.1875 25.2031 44.2614 25.419 44.3182L26.6009 44.6364C26.9039 44.7159 27.241 44.8258 27.6122 44.9659C27.9872 45.1061 28.3452 45.2973 28.6861 45.5398C29.0308 45.7784 29.3149 46.0852 29.5384 46.4602C29.7618 46.8352 29.8736 47.2955 29.8736 47.8409C29.8736 48.4697 29.7088 49.0379 29.3793 49.5455C29.0535 50.053 28.5762 50.4564 27.9474 50.7557C27.3224 51.0549 26.563 51.2045 25.669 51.2045C24.8357 51.2045 24.1141 51.0701 23.5043 50.8011C22.8982 50.5322 22.4209 50.1572 22.0724 49.6761C21.7277 49.1951 21.5327 48.6364 21.4872 48H22.9418C22.9796 48.4394 23.1274 48.803 23.3849 49.0909C23.6463 49.375 23.9759 49.5871 24.3736 49.7273C24.7751 49.8636 25.2069 49.9318 25.669 49.9318C26.2069 49.9318 26.6899 49.8447 27.1179 49.6705C27.5459 49.4924 27.8849 49.2462 28.1349 48.9318C28.3849 48.6136 28.5099 48.2424 28.5099 47.8182C28.5099 47.4318 28.402 47.1174 28.1861 46.875C27.9702 46.6326 27.6861 46.4356 27.3338 46.2841C26.9815 46.1326 26.6009 46 26.1918 45.8864L24.7599 45.4773C23.8509 45.2159 23.1312 44.8428 22.6009 44.358C22.0705 43.8731 21.8054 43.2386 21.8054 42.4545C21.8054 41.803 21.9815 41.2348 22.3338 40.75C22.6899 40.2614 23.1671 39.8826 23.7656 39.6136C24.3679 39.3409 25.0402 39.2045 25.7827 39.2045C26.5327 39.2045 27.1993 39.339 27.7827 39.608C28.366 39.8731 28.8281 40.2367 29.169 40.6989C29.5137 41.161 29.6955 41.6856 29.7145 42.2727H28.3509ZM38.554 42.2727C38.4858 41.697 38.2093 41.25 37.7244 40.9318C37.2396 40.6136 36.6449 40.4545 35.9403 40.4545C35.4252 40.4545 34.9744 40.5379 34.5881 40.7045C34.2055 40.8712 33.9063 41.1004 33.6903 41.392C33.4782 41.6837 33.3722 42.0152 33.3722 42.3864C33.3722 42.697 33.446 42.964 33.5938 43.1875C33.7453 43.4072 33.9384 43.5909 34.1733 43.7386C34.4081 43.8826 34.6544 44.0019 34.9119 44.0966C35.1695 44.1875 35.4062 44.2614 35.6222 44.3182L36.804 44.6364C37.107 44.7159 37.4441 44.8258 37.8153 44.9659C38.1903 45.1061 38.5483 45.2973 38.8892 45.5398C39.2339 45.7784 39.518 46.0852 39.7415 46.4602C39.965 46.8352 40.0767 47.2955 40.0767 47.8409C40.0767 48.4697 39.9119 49.0379 39.5824 49.5455C39.2566 50.053 38.7794 50.4564 38.1506 50.7557C37.5256 51.0549 36.7661 51.2045 35.8722 51.2045C35.0388 51.2045 34.3172 51.0701 33.7074 50.8011C33.1013 50.5322 32.6241 50.1572 32.2756 49.6761C31.9309 49.1951 31.7358 48.6364 31.6903 48H33.1449C33.1828 48.4394 33.3305 48.803 33.5881 49.0909C33.8494 49.375 34.179 49.5871 34.5767 49.7273C34.9782 49.8636 35.41 49.9318 35.8722 49.9318C36.41 49.9318 36.893 49.8447 37.321 49.6705C37.7491 49.4924 38.0881 49.2462 38.3381 48.9318C38.5881 48.6136 38.7131 48.2424 38.7131 47.8182C38.7131 47.4318 38.6051 47.1174 38.3892 46.875C38.1733 46.6326 37.8892 46.4356 37.5369 46.2841C37.1847 46.1326 36.804 46 36.3949 45.8864L34.9631 45.4773C34.054 45.2159 33.3343 44.8428 32.804 44.358C32.2737 43.8731 32.0085 43.2386 32.0085 42.4545C32.0085 41.803 32.1847 41.2348 32.5369 40.75C32.893 40.2614 33.3703 39.8826 33.9688 39.6136C34.571 39.3409 35.2434 39.2045 35.9858 39.2045C36.7358 39.2045 37.4025 39.339 37.9858 39.608C38.5691 39.8731 39.0313 40.2367 39.3722 40.6989C39.7169 41.161 39.8987 41.6856 39.9176 42.2727H38.554ZM52.2116 45.1818C52.2116 46.4091 51.9901 47.4697 51.5469 48.3636C51.1037 49.2576 50.4957 49.947 49.723 50.4318C48.9503 50.9167 48.0677 51.1591 47.0753 51.1591C46.0829 51.1591 45.2003 50.9167 44.4276 50.4318C43.6548 49.947 43.0469 49.2576 42.6037 48.3636C42.1605 47.4697 41.9389 46.4091 41.9389 45.1818C41.9389 43.9545 42.1605 42.8939 42.6037 42C43.0469 41.1061 43.6548 40.4167 44.4276 39.9318C45.2003 39.447 46.0829 39.2045 47.0753 39.2045C48.0677 39.2045 48.9503 39.447 49.723 39.9318C50.4957 40.4167 51.1037 41.1061 51.5469 42C51.9901 42.8939 52.2116 43.9545 52.2116 45.1818ZM50.848 45.1818C50.848 44.1742 50.6795 43.3239 50.3423 42.6307C50.009 41.9375 49.5563 41.4129 48.9844 41.0568C48.4162 40.7008 47.7798 40.5227 47.0753 40.5227C46.3707 40.5227 45.7325 40.7008 45.1605 41.0568C44.5923 41.4129 44.1397 41.9375 43.8026 42.6307C43.4692 43.3239 43.3026 44.1742 43.3026 45.1818C43.3026 46.1894 43.4692 47.0398 43.8026 47.733C44.1397 48.4261 44.5923 48.9508 45.1605 49.3068C45.7325 49.6629 46.3707 49.8409 47.0753 49.8409C47.7798 49.8409 48.4162 49.6629 48.9844 49.3068C49.5563 48.9508 50.009 48.4261 50.3423 47.733C50.6795 47.0398 50.848 46.1894 50.848 45.1818ZM67.0355 43C66.9105 42.6174 66.7457 42.2746 66.5412 41.9716C66.3404 41.6648 66.0999 41.4034 65.8196 41.1875C65.5431 40.9716 65.2287 40.8068 64.8764 40.6932C64.5241 40.5795 64.1378 40.5227 63.7173 40.5227C63.0279 40.5227 62.401 40.7008 61.8366 41.0568C61.2723 41.4129 60.8234 41.9375 60.4901 42.6307C60.1567 43.3239 59.9901 44.1742 59.9901 45.1818C59.9901 46.1894 60.1586 47.0398 60.4957 47.733C60.8329 48.4261 61.2893 48.9508 61.8651 49.3068C62.4408 49.6629 63.0885 49.8409 63.8082 49.8409C64.4749 49.8409 65.062 49.6989 65.5696 49.4148C66.081 49.1269 66.4787 48.7216 66.7628 48.1989C67.0507 47.6723 67.1946 47.053 67.1946 46.3409L67.6264 46.4318H64.1264V45.1818H68.5582V46.4318C68.5582 47.3902 68.3537 48.2235 67.9446 48.9318C67.5393 49.6402 66.9787 50.1894 66.2628 50.5795C65.5507 50.9659 64.7325 51.1591 63.8082 51.1591C62.7779 51.1591 61.8726 50.9167 61.0923 50.4318C60.3158 49.947 59.7098 49.2576 59.2741 48.3636C58.8423 47.4697 58.6264 46.4091 58.6264 45.1818C58.6264 44.2614 58.7495 43.4337 58.9957 42.6989C59.2457 41.9602 59.598 41.3314 60.0526 40.8125C60.5071 40.2936 61.045 39.8958 61.6662 39.6193C62.2874 39.3428 62.9711 39.2045 63.7173 39.2045C64.331 39.2045 64.9029 39.2973 65.4332 39.483C65.9673 39.6648 66.4427 39.9242 66.8594 40.2614C67.2798 40.5947 67.6302 40.9943 67.9105 41.4602C68.1908 41.9223 68.384 42.4356 68.4901 43H67.0355ZM70.9716 51V39.3636H74.9034C75.8125 39.3636 76.5587 39.5189 77.142 39.8295C77.7254 40.1364 78.1572 40.5587 78.4375 41.0966C78.7178 41.6345 78.858 42.2462 78.858 42.9318C78.858 43.6174 78.7178 44.2254 78.4375 44.7557C78.1572 45.286 77.7273 45.7027 77.1477 46.0057C76.5682 46.3049 75.8277 46.4545 74.9261 46.4545H71.7443V45.1818H74.8807C75.5019 45.1818 76.0019 45.0909 76.3807 44.9091C76.7633 44.7273 77.0398 44.4697 77.2102 44.1364C77.3845 43.7992 77.4716 43.3977 77.4716 42.9318C77.4716 42.4659 77.3845 42.0587 77.2102 41.7102C77.036 41.3617 76.7576 41.0928 76.375 40.9034C75.9924 40.7102 75.4867 40.6136 74.858 40.6136H72.3807V51H70.9716ZM76.4489 45.7727L79.3125 51H77.6761L74.858 45.7727H76.4489ZM91.0241 45.1818C91.0241 46.4091 90.8026 47.4697 90.3594 48.3636C89.9162 49.2576 89.3082 49.947 88.5355 50.4318C87.7628 50.9167 86.8802 51.1591 85.8878 51.1591C84.8954 51.1591 84.0128 50.9167 83.2401 50.4318C82.4673 49.947 81.8594 49.2576 81.4162 48.3636C80.973 47.4697 80.7514 46.4091 80.7514 45.1818C80.7514 43.9545 80.973 42.8939 81.4162 42C81.8594 41.1061 82.4673 40.4167 83.2401 39.9318C84.0128 39.447 84.8954 39.2045 85.8878 39.2045C86.8802 39.2045 87.7628 39.447 88.5355 39.9318C89.3082 40.4167 89.9162 41.1061 90.3594 42C90.8026 42.8939 91.0241 43.9545 91.0241 45.1818ZM89.6605 45.1818C89.6605 44.1742 89.492 43.3239 89.1548 42.6307C88.8215 41.9375 88.3688 41.4129 87.7969 41.0568C87.2287 40.7008 86.5923 40.5227 85.8878 40.5227C85.1832 40.5227 84.545 40.7008 83.973 41.0568C83.4048 41.4129 82.9522 41.9375 82.6151 42.6307C82.2817 43.3239 82.1151 44.1742 82.1151 45.1818C82.1151 46.1894 82.2817 47.0398 82.6151 47.733C82.9522 48.4261 83.4048 48.9508 83.973 49.3068C84.545 49.6629 85.1832 49.8409 85.8878 49.8409C86.5923 49.8409 87.2287 49.6629 87.7969 49.3068C88.3688 48.9508 88.8215 48.4261 89.1548 47.733C89.492 47.0398 89.6605 46.1894 89.6605 45.1818ZM101.03 39.3636H102.439V47.0682C102.439 47.8636 102.251 48.5739 101.876 49.1989C101.505 49.8201 100.981 50.3106 100.303 50.6705C99.6245 51.0265 98.8291 51.2045 97.9162 51.2045C97.0033 51.2045 96.2079 51.0265 95.5298 50.6705C94.8518 50.3106 94.3253 49.8201 93.9503 49.1989C93.5791 48.5739 93.3935 47.8636 93.3935 47.0682V39.3636H94.8026V46.9545C94.8026 47.5227 94.9276 48.0284 95.1776 48.4716C95.4276 48.911 95.7836 49.2576 96.2457 49.5114C96.7116 49.7614 97.2685 49.8864 97.9162 49.8864C98.5639 49.8864 99.1207 49.7614 99.5866 49.5114C100.053 49.2576 100.409 48.911 100.655 48.4716C100.905 48.0284 101.03 47.5227 101.03 46.9545V39.3636ZM105.253 51V39.3636H109.185C110.098 39.3636 110.844 39.5284 111.423 39.858C112.007 40.1837 112.438 40.625 112.719 41.1818C112.999 41.7386 113.139 42.3598 113.139 43.0455C113.139 43.7311 112.999 44.3542 112.719 44.9148C112.442 45.4754 112.014 45.9223 111.435 46.2557C110.855 46.5852 110.113 46.75 109.207 46.75H106.389V45.5H109.162C109.787 45.5 110.289 45.392 110.668 45.1761C111.046 44.9602 111.321 44.6686 111.491 44.3011C111.666 43.9299 111.753 43.5114 111.753 43.0455C111.753 42.5795 111.666 42.1629 111.491 41.7955C111.321 41.428 111.045 41.1402 110.662 40.9318C110.279 40.7197 109.772 40.6136 109.139 40.6136H106.662V51H105.253Z" fill="white"/>
</svg>
